<svg width="32" height="32" viewBox="0 0 32 32" fill="none" xmlns="http://www.w3.org/2000/svg">
<path d="M15.9759 6.10452L17.5921 11.116C17.7923 11.7368 18.3707 12.157 19.023 12.1556L24.2886 12.1441C24.7741 12.143 24.9761 12.7647 24.5827 13.0492L20.3159 16.135C19.7874 16.5172 19.5665 17.1972 19.7694 17.817L21.4075 22.8214C21.5585 23.2828 21.0297 23.667 20.6375 23.3808L16.3843 20.2764C15.8575 19.8919 15.1425 19.8919 14.6157 20.2764L10.3625 23.3808C9.97033 23.667 9.44147 23.2828 9.59249 22.8214L11.2306 17.817C11.4335 17.1972 11.2126 16.5172 10.6841 16.135L6.41732 13.0492C6.02394 12.7647 6.22595 12.143 6.71142 12.1441L11.977 12.1556C12.6293 12.157 13.2077 11.7368 13.4079 11.116L15.0241 6.10452C15.1731 5.64248 15.8269 5.64248 15.9759 6.10452Z" stroke="#42484E"/>
</svg>
