<svg width="32" height="32" viewBox="0 0 32 32" fill="none" xmlns="http://www.w3.org/2000/svg">
<path d="M7.66987 15.5L12 8L16.3301 15.5H7.66987Z" stroke="#42484E"/>
<mask id="path-2-inside-1_56_288" fill="white">
<path d="M14.9347 10.7501C16.0379 10.2619 17.2644 10.1403 18.4396 10.4025C19.6147 10.6647 20.6786 11.2973 21.4796 12.2104C22.2806 13.1234 22.778 14.2702 22.9009 15.4875C23.0238 16.7048 22.7659 17.9305 22.164 18.9901C21.5621 20.0496 20.6469 20.889 19.5486 21.3886C18.4504 21.8883 17.2252 22.0227 16.0475 21.7728C14.8697 21.5229 13.7996 20.9013 12.9893 19.9967C12.1791 19.0921 11.6702 17.9505 11.5351 16.7346L12.6861 16.6022C12.7939 17.5717 13.1996 18.482 13.8457 19.2033C14.4917 19.9246 15.345 20.4201 16.284 20.6194C17.2231 20.8187 18.2 20.7115 19.0757 20.3131C19.9514 19.9147 20.6811 19.2455 21.1611 18.4006C21.641 17.5558 21.8466 16.5785 21.7486 15.6079C21.6506 14.6373 21.254 13.7228 20.6153 12.9948C19.9766 12.2668 19.1284 11.7624 18.1914 11.5533C17.2544 11.3443 16.2764 11.4413 15.3968 11.8305L14.9347 10.7501Z"/>
</mask>
<path d="M14.9347 10.7501C16.0379 10.2619 17.2644 10.1403 18.4396 10.4025C19.6147 10.6647 20.6786 11.2973 21.4796 12.2104C22.2806 13.1234 22.778 14.2702 22.9009 15.4875C23.0238 16.7048 22.7659 17.9305 22.164 18.9901C21.5621 20.0496 20.6469 20.889 19.5486 21.3886C18.4504 21.8883 17.2252 22.0227 16.0475 21.7728C14.8697 21.5229 13.7996 20.9013 12.9893 19.9967C12.1791 19.0921 11.6702 17.9505 11.5351 16.7346L12.6861 16.6022C12.7939 17.5717 13.1996 18.482 13.8457 19.2033C14.4917 19.9246 15.345 20.4201 16.284 20.6194C17.2231 20.8187 18.2 20.7115 19.0757 20.3131C19.9514 19.9147 20.6811 19.2455 21.1611 18.4006C21.641 17.5558 21.8466 16.5785 21.7486 15.6079C21.6506 14.6373 21.254 13.7228 20.6153 12.9948C19.9766 12.2668 19.1284 11.7624 18.1914 11.5533C17.2544 11.3443 16.2764 11.4413 15.3968 11.8305L14.9347 10.7501Z" stroke="#42484E" stroke-width="2" mask="url(#path-2-inside-1_56_288)"/>
</svg>
