<svg width="32" height="32" viewBox="0 0 32 32" fill="none" xmlns="http://www.w3.org/2000/svg">
<path d="M3.10462 16.9962C3.06044 16.7157 3.0293 16.4133 3.01505 16.0959M3.01505 16.0959C2.93277 14.2631 3.41385 11.9288 5.19996 10.394C6.39727 8.99356 9.86948 6.73282 14.1799 8.89353C18.4903 11.0542 19.1688 14.9956 18.9692 16.6961C18.8694 18.0966 18.1311 21.2576 15.9759 22.6981C13.8207 24.1386 10.8872 24.0986 9.68987 23.8985C9.59009 22.7981 9.4504 20.5374 9.68987 20.2973C9.9892 19.9972 7.89387 19.0969 7.59453 19.397C7.2952 19.6971 2.70465 18.7968 3.01505 16.0959Z" stroke="#42484E"/>
<circle cx="7" cy="15" r="1.5" stroke="#42484E"/>
<circle cx="10.5" cy="12" r="1.5" stroke="#42484E"/>
<circle cx="15" cy="14.5" r="1.5" stroke="#42484E"/>
<circle cx="14" cy="19" r="1.5" stroke="#42484E"/>
<path d="M26 19L23.4019 14.5L28.5981 14.5L26 19Z" fill="#42484E"/>
</svg>
