<svg width="32" height="32" viewBox="0 0 32 32" fill="none" xmlns="http://www.w3.org/2000/svg">
<path d="M7.10462 16.9962C7.06044 16.7157 7.0293 16.4133 7.01505 16.0959M7.01505 16.0959C6.93277 14.2631 7.41385 11.9288 9.19996 10.394C10.3973 8.99356 13.8695 6.73282 18.1799 8.89353C22.4903 11.0542 23.1688 14.9956 22.9692 16.6961C22.8694 18.0966 22.1311 21.2576 19.9759 22.6981C17.8207 24.1386 14.8872 24.0986 13.6899 23.8985C13.5901 22.7981 13.4504 20.5374 13.6899 20.2973C13.9892 19.9972 11.8939 19.0969 11.5945 19.397C11.2952 19.6971 6.70465 18.7968 7.01505 16.0959Z" stroke="#42484E"/>
<circle cx="11" cy="15" r="1.5" stroke="#42484E"/>
<circle cx="14.5" cy="12" r="1.5" stroke="#42484E"/>
<circle cx="19" cy="14.5" r="1.5" stroke="#42484E"/>
<circle cx="18" cy="19" r="1.5" stroke="#42484E"/>
<path d="M28 19L25.4019 14.5L30.5981 14.5L28 19Z" fill="#42484E"/>
</svg>
