<svg width="32" height="32" viewBox="0 0 32 32" fill="none" xmlns="http://www.w3.org/2000/svg">
<path d="M4.66987 15.5L9 8L13.3301 15.5H4.66987Z" stroke="#42484E"/>
<mask id="path-2-inside-1_56_288" fill="white">
<path d="M11.9347 10.7501C13.0379 10.2619 14.2644 10.1403 15.4396 10.4025C16.6147 10.6647 17.6786 11.2973 18.4796 12.2104C19.2806 13.1234 19.778 14.2702 19.9009 15.4875C20.0238 16.7048 19.7659 17.9305 19.164 18.9901C18.5621 20.0496 17.6469 20.889 16.5486 21.3886C15.4504 21.8883 14.2252 22.0227 13.0475 21.7728C11.8697 21.5229 10.7996 20.9013 9.98935 19.9967C9.17915 19.0921 8.67022 17.9505 8.53507 16.7346L9.68608 16.6022C9.79385 17.5717 10.1996 18.482 10.8457 19.2033C11.4917 19.9246 12.345 20.4201 13.284 20.6194C14.2231 20.8187 15.2 20.7115 16.0757 20.3131C16.9514 19.9147 17.6811 19.2455 18.1611 18.4006C18.641 17.5558 18.8466 16.5785 18.7486 15.6079C18.6506 14.6373 18.254 13.7228 17.6153 12.9948C16.9766 12.2668 16.1284 11.7624 15.1914 11.5533C14.2544 11.3443 13.2764 11.4413 12.3968 11.8305L11.9347 10.7501Z"/>
</mask>
<path d="M11.9347 10.7501C13.0379 10.2619 14.2644 10.1403 15.4396 10.4025C16.6147 10.6647 17.6786 11.2973 18.4796 12.2104C19.2806 13.1234 19.778 14.2702 19.9009 15.4875C20.0238 16.7048 19.7659 17.9305 19.164 18.9901C18.5621 20.0496 17.6469 20.889 16.5486 21.3886C15.4504 21.8883 14.2252 22.0227 13.0475 21.7728C11.8697 21.5229 10.7996 20.9013 9.98935 19.9967C9.17915 19.0921 8.67022 17.9505 8.53507 16.7346L9.68608 16.6022C9.79385 17.5717 10.1996 18.482 10.8457 19.2033C11.4917 19.9246 12.345 20.4201 13.284 20.6194C14.2231 20.8187 15.2 20.7115 16.0757 20.3131C16.9514 19.9147 17.6811 19.2455 18.1611 18.4006C18.641 17.5558 18.8466 16.5785 18.7486 15.6079C18.6506 14.6373 18.254 13.7228 17.6153 12.9948C16.9766 12.2668 16.1284 11.7624 15.1914 11.5533C14.2544 11.3443 13.2764 11.4413 12.3968 11.8305L11.9347 10.7501Z" stroke="#42484E" stroke-width="2" mask="url(#path-2-inside-1_56_288)"/>
<path d="M26 19L23.4019 14.5L28.5981 14.5L26 19Z" fill="#42484E"/>
</svg>
