<svg width="32" height="32" viewBox="0 0 32 32" fill="none" xmlns="http://www.w3.org/2000/svg">
<path d="M20.9176 16.5371L15.3626 22.7266C14.9922 22.9329 13.9182 23.2218 12.585 22.7266L8.41875 17.4656C8.04841 16.9498 7.58549 15.6706 8.6965 14.6803C9.80751 13.69 10.2704 13.2361 10.363 13.1329M10.363 13.1329C11.3814 13.5456 13.9182 14.3708 15.918 14.3708M10.363 13.1329C6.19671 10.0382 11.7518 7.25295 14.2515 8.18138M14.2515 8.18138L11.1963 12.2045M14.2515 8.18138L17.5846 11.5856" stroke="#42484E"/>
<path d="M23.9738 20.4122L23.4373 23C23.0082 17.5657 21.2916 16.6384 20.4869 16.8541L21.2916 15.8837L17 10.7082L17.5364 10.0612C18.6093 9.5437 21.5598 12.4334 22.9009 13.9429C23.9738 14.978 24.0632 18.6871 23.9738 20.4122Z" stroke="#42484E"/>
<path d="M17.5364 10.7082L19.414 12.3255L19.9504 13.6194L21.0233 14.5898L21.5598 14.9133L22.0962 15.8837L21.5598 16.5306L21.2915 16.8541L22.6326 15.8837L22.9009 16.8541V17.501L23.1691 18.148L22.0962 17.1775V16.8541H23.1691H23.4373V20.7357L22.3644 14.5898L23.4373 15.5602L23.1691 15.2367V16.2071L21.0233 13.6194L21.828 13.2959L22.3644 13.9429L20.2186 12.9725L19.6822 11.6786L21.2915 12.9725L19.414 12.002L18.0729 10.7082L17.2682 10.3847" stroke="#42484E"/>
<path d="M23.4374 21.3827V20.7357" stroke="#42484E"/>
<path d="M21.608 16.7282L20.8033 15.7578" stroke="#42484E"/>
<ellipse cx="16.1958" cy="14.3708" rx="1.11101" ry="1.23789" fill="#42484E"/>
</svg>
