<svg width="113" height="40" viewBox="0 0 113 40" fill="none" xmlns="http://www.w3.org/2000/svg">
<path d="M13.0289 38.7781L10.3501 36.9132L10.1674 35.9486L9.74124 35.3698L9.13241 34.6624L9.07153 33.955L9.37594 33.7621L9.01064 32.8617L7.85387 30.6753L7.18416 28.5531L6.94063 26.3666L7.48857 24.8232L9.49771 21.0933L25.9361 19.6785L30.8676 20.2572C31.6185 22.1436 32.7671 26.3151 32.8158 26.3666C32.8767 26.4309 32.9985 31.8971 32.8767 32.4116C32.7793 32.8232 31.2532 35.9271 30.5023 37.4277L26.484 38.7781L22.344 40H19.3607L16.1339 39.4855L13.0289 38.7781Z" fill="#DBD4D4"/>
<path d="M25.1446 23.537L23.5616 24.1157L23.379 24.18L23.5616 23.7942L24.2314 23.344L25.2664 22.9582L26.3623 22.7653H27.8843L29.8935 22.8939L30.9285 22.9582L31.4764 23.4083L31.0502 23.344L29.3455 23.1511L26.7884 23.2154L25.1446 23.537Z" fill="#372C2C"/>
<path d="M14.6119 24.18L16.1948 24.7588L16.3775 24.8231L16.1948 24.4373L15.5251 23.9871L14.4901 23.6013L13.3942 23.4083H11.8721L9.86301 23.5369L8.828 23.6013L8.28006 24.0514L8.70624 23.9871L10.411 23.7942L12.968 23.8585L14.6119 24.18Z" fill="#372C2C"/>
<path d="M23.8661 29.1961V28.1029H23.8052H23.6225L23.2572 28.3601C23.3587 28.1458 23.5738 27.7042 23.6225 27.6527C23.6712 27.6013 23.8052 27.2026 23.8661 27.0096L23.4399 27.2669L23.5616 26.881L24.414 26.2379L25.3881 25.9164L26.0578 25.7878L27.7017 25.5948C28.067 25.6377 28.8219 25.7235 28.9193 25.7235C29.0167 25.7235 29.6093 26.1522 29.8935 26.3666L30.6241 27.0096L31.172 27.717L31.5373 28.6174L31.1111 29.0675C30.9082 29.3462 30.4901 29.9164 30.4414 29.9678C30.3927 30.0193 29.8935 30.6324 29.6499 30.9325L28.4932 31.5756L27.5799 31.7042L26.4231 31.7685L25.7534 31.7042L25.0837 31.3183L24.414 30.7395L24.1096 30.0965L23.8661 29.1961Z" fill="white"/>
<path d="M15.8295 29.1961V28.1029H15.8904H16.0731L16.4384 28.3601C16.3369 28.1458 16.1218 27.7042 16.0731 27.6527C16.0244 27.6013 15.8904 27.2026 15.8295 27.0096L16.2557 27.2669L16.1339 26.881L15.2816 26.2379L14.3075 25.9164L13.6377 25.7878L11.9939 25.5948C11.6286 25.6377 10.8737 25.7235 10.7763 25.7235C10.6788 25.7235 10.0862 26.1522 9.80213 26.3666L9.07154 27.0096L8.52359 27.717L8.15829 28.6174L8.58447 29.0675C8.78742 29.3462 9.20548 29.9164 9.25418 29.9678C9.30289 30.0193 9.80213 30.6324 10.0457 30.9325L11.2024 31.5756L12.1157 31.7042L13.2724 31.7685L13.9422 31.7042L14.6119 31.3183L15.2816 30.7395L15.586 30.0965L15.8295 29.1961Z" fill="white"/>
<ellipse cx="12.6636" cy="28.8746" rx="2.43531" ry="2.89389" fill="#9E383A"/>
<ellipse cx="27.1537" cy="28.8746" rx="2.43531" ry="2.89389" fill="#9E383A"/>
<ellipse rx="0.629321" ry="1.18379" transform="matrix(0.618242 -0.785988 0.75161 0.659607 14.0642 27.2562)" fill="white"/>
<ellipse rx="0.629321" ry="1.18379" transform="matrix(0.618242 -0.785988 0.75161 0.659607 28.6761 27.2562)" fill="white"/>
<path d="M14.7945 27.1383L15.8295 28.0386L16.0731 28.1672L16.4384 28.3601L16.2557 28.0386L16.0731 27.6527L15.8295 27.0096L16.2557 27.2669L16.1339 26.881L15.9513 26.6881L15.586 26.4309L15.2816 26.2379L14.1857 25.8521L13.2116 25.7235L12.0548 25.5948H11.5068L10.9589 25.7235L10.2283 25.9807L9.07154 27.0096L8.52359 27.717L8.15829 28.6174L8.28006 28.746V28.6817L9.1933 27.5884L10.2892 26.9453L11.3851 26.4309H12.1766L13.5769 26.5595L14.7945 27.1383Z" fill="#372C2C"/>
<path d="M24.9011 27.1383L23.8661 28.1029L23.6225 28.1672L23.2572 28.3601L23.379 28.0386L23.6225 27.6527L23.8661 27.0096L23.4399 27.2669L23.5616 26.881L23.7443 26.6881L24.1096 26.4309L24.414 26.2379L25.5099 25.8521L26.484 25.7235L27.6408 25.5948H28.1887L28.9802 25.7235L29.4673 25.9807L30.6241 27.0096L31.172 27.717L31.5373 28.6174L31.4155 28.746V28.6817L30.5023 27.5884L29.4064 26.9453L28.3105 26.4309H27.519L26.1187 26.5595L24.9011 27.1383Z" fill="#372C2C"/>
<path d="M6.69711 35.8842L7.793 37.4277L7.91476 37.1061L8.64536 37.5563L9.43683 38.1994L10.411 38.328L10.1674 37.7492L10.0457 37.1061L10.5936 36.9132V36.1415L10.1674 35.5627L9.25419 34.6624V34.1479L9.61948 33.6978L9.25419 33.0547L8.76712 32.09L7.91476 30.6109L7.30594 28.6174L7.12329 27.2669L7.61035 27.5241L7.91476 26.7524L8.28006 25.6592L8.64536 24.7588L8.76712 23.7299H9.61948V24.5659L10.1674 25.8521L11.446 27.5241V27.074L11.8721 25.8521L12.1157 24.7588L12.4201 23.537L13.0898 23.3441L13.8204 24.7588L14.3075 26.1093L14.8554 26.9453L15.6469 27.717L15.4033 26.9453L15.2816 26.3023V25.0804L15.1598 24.0514L15.2816 23.8585H15.6469L16.621 25.8521L18.0822 28.4244L20.3957 31.3826L21.4307 29.582L22.1005 28.1029L22.5875 26.6238L23.0746 24.7588L23.2572 23.9228H23.6834V24.8875L23.6225 26.6238L24.1096 26.4309L24.5358 25.3376L25.0837 24.1801L25.6317 22.701L25.8143 21.5434V19.8714C26.1593 20.3001 26.8615 21.1833 26.9102 21.2862C26.9589 21.3891 27.7017 22.6581 28.067 23.2797L29.2237 26.045L29.8935 25.7878L30.2588 24.373L30.3805 22.508V20.3215L30.624 20.836C30.7864 21.2862 31.1233 22.1994 31.172 22.2508C31.2207 22.3023 31.8011 23.687 32.0852 24.373L32.7549 26.5595L32.6332 27.91L32.0244 30.2251L30.7458 32.1543L30.2588 33.4405H30.8676L31.9026 32.7974L31.0502 33.5691L30.2588 35.0482L30.3805 35.8199H31.0502L29.7108 37.0418L29.8935 37.299H30.3805V38.328L31.2938 37.7492L32.0244 37.299L32.6332 36.656L32.7549 37.299L33.1811 37.0418L33.8508 36.0772L34.7032 35.0482L35.7382 33.8264L36.7732 32.1543L37.6256 30.6109L37.93 29.4534H38.1126L38.5997 29.582V27.91L38.7215 27.6527V27.2026L38.965 27.074L39.4521 27.7814L39.7565 27.6527L40 26.881V25.3376V23.0868V21.4148L39.7565 19.6141L39.4521 17.1704L39.1476 15.6913L38.8432 14.5338L38.4779 13.2476L37.5038 11.3183L36.1644 9.00322L34.3988 6.6238L32.6941 4.63023L30.5632 2.70096L28.3714 1.41479L26.1796 0.51447L23.5616 0H22.1613L21.1263 0.128617L20.3957 0.385852L19.5434 0.51447L18.3257 0.385852L17.4734 0.257235L16.0731 0.128617L14.7336 0.257235L12.7854 0.836013L11.0807 1.60772L8.94977 3.21543L6.69711 5.08039L5.2968 6.6238L3.22679 9.45338C2.73973 10.4609 1.75342 12.4887 1.70472 12.5402C1.65601 12.5916 0.832065 14.9196 0.42618 16.0772L0.121766 18.3923C0.0811771 19.164 0 20.7331 0 20.836C0 20.9646 0.121766 23.6656 0.121766 23.8585C0.121766 24.0514 0.608828 25.9807 0.669711 26.1093C0.730594 26.2379 0.913242 27.0096 1.09589 27.2669C1.24201 27.4727 1.15677 27.8671 1.09589 28.0386L1.27854 29.4534L1.64384 29.582L1.88737 29.2605L2.07002 28.746H2.31355L2.80061 29.582L3.22679 30.8039L4.44444 32.6688L6.69711 35.8842Z" fill="#71B1D6"/>
<ellipse cx="27.1537" cy="28.746" rx="0.852359" ry="1.35048" fill="#31262A"/>
<ellipse cx="12.6636" cy="28.746" rx="0.852359" ry="1.35048" fill="#31262A"/>
<path d="M20.0913 37.0418L19.5434 37.1062H19.3607L19.4825 36.9775L19.6651 36.8489C19.7666 36.8275 19.9817 36.7846 20.0304 36.7846H20.3957H20.761H21.1263L21.3699 36.9132L21.4916 37.1062L21.1263 37.0418H20.7002H20.3957H20.0913Z" fill="#966B5B"/>
<path d="M57.7186 19.3H64.4386V21.9H57.7186V19.3ZM57.9586 27H54.7186V13H65.2986V15.6H57.9586V27ZM67.272 27V12.16H70.392V27H67.272ZM73.2877 27V16.24H76.4077V27H73.2877ZM74.8477 14.74C74.2743 14.74 73.8077 14.5733 73.4477 14.24C73.0877 13.9067 72.9077 13.4933 72.9077 13C72.9077 12.5067 73.0877 12.0933 73.4477 11.76C73.8077 11.4267 74.2743 11.26 74.8477 11.26C75.421 11.26 75.8877 11.42 76.2477 11.74C76.6077 12.0467 76.7877 12.4467 76.7877 12.94C76.7877 13.46 76.6077 13.8933 76.2477 14.24C75.901 14.5733 75.4343 14.74 74.8477 14.74ZM83.9233 27.16C82.9099 27.16 81.9966 26.9333 81.1833 26.48C80.3699 26.0133 79.7233 25.3667 79.2433 24.54C78.7766 23.7133 78.5433 22.74 78.5433 21.62C78.5433 20.4867 78.7766 19.5067 79.2433 18.68C79.7233 17.8533 80.3699 17.2133 81.1833 16.76C81.9966 16.3067 82.9099 16.08 83.9233 16.08C84.8299 16.08 85.6233 16.28 86.3033 16.68C86.9833 17.08 87.5099 17.6867 87.8833 18.5C88.2566 19.3133 88.4433 20.3533 88.4433 21.62C88.4433 22.8733 88.2633 23.9133 87.9033 24.74C87.5433 25.5533 87.0233 26.16 86.3433 26.56C85.6766 26.96 84.8699 27.16 83.9233 27.16ZM84.4633 24.6C84.9699 24.6 85.4299 24.48 85.8433 24.24C86.2566 24 86.5833 23.66 86.8233 23.22C87.0766 22.7667 87.2033 22.2333 87.2033 21.62C87.2033 20.9933 87.0766 20.46 86.8233 20.02C86.5833 19.58 86.2566 19.24 85.8433 19C85.4299 18.76 84.9699 18.64 84.4633 18.64C83.9433 18.64 83.4766 18.76 83.0633 19C82.6499 19.24 82.3166 19.58 82.0633 20.02C81.8233 20.46 81.7033 20.9933 81.7033 21.62C81.7033 22.2333 81.8233 22.7667 82.0633 23.22C82.3166 23.66 82.6499 24 83.0633 24.24C83.4766 24.48 83.9433 24.6 84.4633 24.6ZM87.2833 27V24.8L87.3433 21.6L87.1433 18.42V12.16H90.2633V27H87.2833ZM98.4909 27.16C97.2643 27.16 96.1843 26.92 95.2509 26.44C94.3309 25.96 93.6176 25.3067 93.1109 24.48C92.6043 23.64 92.3509 22.6867 92.3509 21.62C92.3509 20.54 92.5976 19.5867 93.0909 18.76C93.5976 17.92 94.2843 17.2667 95.1509 16.8C96.0176 16.32 96.9976 16.08 98.0909 16.08C99.1443 16.08 100.091 16.3067 100.931 16.76C101.784 17.2 102.458 17.84 102.951 18.68C103.444 19.5067 103.691 20.5 103.691 21.66C103.691 21.78 103.684 21.92 103.671 22.08C103.658 22.2267 103.644 22.3667 103.631 22.5H94.8909V20.68H101.991L100.791 21.22C100.791 20.66 100.678 20.1733 100.451 19.76C100.224 19.3467 99.9109 19.0267 99.5109 18.8C99.1109 18.56 98.6443 18.44 98.1109 18.44C97.5776 18.44 97.1043 18.56 96.6909 18.8C96.2909 19.0267 95.9776 19.3533 95.7509 19.78C95.5243 20.1933 95.4109 20.6867 95.4109 21.26V21.74C95.4109 22.3267 95.5376 22.8467 95.7909 23.3C96.0576 23.74 96.4243 24.08 96.8909 24.32C97.3709 24.5467 97.9309 24.66 98.5709 24.66C99.1443 24.66 99.6443 24.5733 100.071 24.4C100.511 24.2267 100.911 23.9667 101.271 23.62L102.931 25.42C102.438 25.98 101.818 26.4133 101.071 26.72C100.324 27.0133 99.4643 27.16 98.4909 27.16ZM105.768 27V16.24H108.748V19.28L108.328 18.4C108.648 17.64 109.161 17.0667 109.868 16.68C110.575 16.28 111.435 16.08 112.448 16.08V18.96C112.315 18.9467 112.195 18.94 112.088 18.94C111.981 18.9267 111.868 18.92 111.748 18.92C110.895 18.92 110.201 19.1667 109.668 19.66C109.148 20.14 108.888 20.8933 108.888 21.92V27H105.768Z" fill="black"/>
</svg>
