<svg width="16" height="16" viewBox="0 0 16 16" fill="none" xmlns="http://www.w3.org/2000/svg">
<g clip-path="url(#clip0_97_212)">
<path d="M0.669873 8.5L5 1L9.33013 8.5H0.669873Z" stroke="#42484E"/>
<mask id="path-2-inside-1_97_212" fill="white">
<path d="M7.93462 3.75009C9.03784 3.26193 10.2644 3.14029 11.4395 3.40249C12.6146 3.66469 13.6785 4.29735 14.4795 5.21037C15.2806 6.12339 15.778 7.27022 15.9008 8.48753C16.0237 9.70483 15.7659 10.9305 15.164 11.9901C14.5621 13.0496 13.6468 13.889 12.5486 14.3886C11.4503 14.8883 10.2251 15.0227 9.04739 14.7728C7.86966 14.5229 6.79949 13.9013 5.98929 12.9967C5.17908 12.0921 4.67016 10.9505 4.535 9.73456L5.68602 9.60219C5.79379 10.5717 6.19958 11.482 6.84559 12.2033C7.49161 12.9246 8.34491 13.4201 9.28397 13.6194C10.223 13.8187 11.2 13.7115 12.0756 13.3131C12.9513 12.9147 13.6811 12.2455 14.161 11.4006C14.6409 10.5558 14.8465 9.57849 14.7486 8.60788C14.6506 7.63726 14.254 6.72284 13.6153 5.99484C12.9766 5.26684 12.1283 4.76239 11.1913 4.55333C10.2543 4.34427 9.27635 4.44126 8.3967 4.83049L7.93462 3.75009Z"/>
</mask>
<path d="M7.93462 3.75009C9.03784 3.26193 10.2644 3.14029 11.4395 3.40249C12.6146 3.66469 13.6785 4.29735 14.4795 5.21037C15.2806 6.12339 15.778 7.27022 15.9008 8.48753C16.0237 9.70483 15.7659 10.9305 15.164 11.9901C14.5621 13.0496 13.6468 13.889 12.5486 14.3886C11.4503 14.8883 10.2251 15.0227 9.04739 14.7728C7.86966 14.5229 6.79949 13.9013 5.98929 12.9967C5.17908 12.0921 4.67016 10.9505 4.535 9.73456L5.68602 9.60219C5.79379 10.5717 6.19958 11.482 6.84559 12.2033C7.49161 12.9246 8.34491 13.4201 9.28397 13.6194C10.223 13.8187 11.2 13.7115 12.0756 13.3131C12.9513 12.9147 13.6811 12.2455 14.161 11.4006C14.6409 10.5558 14.8465 9.57849 14.7486 8.60788C14.6506 7.63726 14.254 6.72284 13.6153 5.99484C12.9766 5.26684 12.1283 4.76239 11.1913 4.55333C10.2543 4.34427 9.27635 4.44126 8.3967 4.83049L7.93462 3.75009Z" stroke="#42484E" stroke-width="2" mask="url(#path-2-inside-1_97_212)"/>
</g>
<defs>
<clipPath id="clip0_97_212">
<rect width="16" height="16" fill="white"/>
</clipPath>
</defs>
</svg>
