<svg width="150" height="150" viewBox="0 0 150 150" fill="none" xmlns="http://www.w3.org/2000/svg">
<path d="M48.8586 145.418L38.8129 138.425L38.128 134.807L36.5298 132.637L34.2467 129.984L34.0184 127.331L35.1599 126.608L33.7901 123.232L29.4522 115.032L26.9408 107.074L26.0275 98.8748L28.0823 93.087L35.6166 79.0999L97.2604 73.7944L115.754 75.9649C118.569 83.0388 122.877 98.6819 123.06 98.8748C123.288 99.116 123.744 119.614 123.288 121.544C122.923 123.087 117.2 134.727 114.384 140.354L99.3152 145.418L83.7901 150H72.6029L60.5024 148.071L48.8586 145.418Z" fill="#DBD4D4"/>
<path d="M94.2919 88.264L88.3558 90.4344L87.6709 90.6756L88.3558 89.2286L90.8672 87.5405L94.7485 86.0936L98.8581 85.3701H104.566L112.1 85.8524L115.981 86.0936L118.036 87.7817L116.438 87.5405L110.045 86.8171L100.456 87.0582L94.2919 88.264Z" fill="#372C2C"/>
<path d="M54.7944 90.6756L60.7305 92.846L61.4154 93.0872L60.7305 91.6403L58.2191 89.9522L54.3378 88.5052L50.2282 87.7817H44.5204L36.9862 88.2641L33.1049 88.5052L31.0501 90.1933L32.6483 89.9522L39.041 89.2287L48.63 89.4698L54.7944 90.6756Z" fill="#372C2C"/>
<path d="M89.4981 109.486V105.386H89.2698H88.5848L87.215 106.351C87.5955 105.547 88.4022 103.891 88.5848 103.698C88.7675 103.505 89.2698 102.01 89.4981 101.287L87.8999 102.251L88.3565 100.804L91.5529 98.3928L95.2058 97.187L97.7172 96.7047L103.882 95.9812C105.251 96.142 108.083 96.4635 108.448 96.4635C108.813 96.4635 111.035 98.0712 112.101 98.8751L114.841 101.287L116.895 103.939L118.265 107.316L116.667 109.004C115.906 110.049 114.338 112.187 114.156 112.38C113.973 112.573 112.101 114.872 111.188 115.997L106.85 118.409L103.425 118.891L99.0871 119.132L96.5757 118.891L94.0643 117.444L91.5529 115.274L90.4113 112.862L89.4981 109.486Z" fill="white"/>
<path d="M59.3603 109.486V105.386H59.5886H60.2735L61.6434 106.351C61.2629 105.547 60.4562 103.891 60.2735 103.698C60.0909 103.505 59.5886 102.01 59.3603 101.287L60.9584 102.251L60.5018 100.804L57.3055 98.3928L53.6525 97.187L51.1411 96.7047L44.9767 95.9812C43.6068 96.142 40.7758 96.4635 40.4105 96.4635C40.0452 96.4635 37.823 98.0712 36.7575 98.8751L34.0178 101.287L31.963 103.939L30.5931 107.316L32.1913 109.004C32.9524 110.049 34.5201 112.187 34.7027 112.38C34.8854 112.573 36.7575 114.872 37.6708 115.997L42.0087 118.409L45.4333 118.891L49.7712 119.132L52.2826 118.891L54.7941 117.444L57.3055 115.274L58.447 112.862L59.3603 109.486Z" fill="white"/>
<ellipse cx="47.4884" cy="108.28" rx="9.13242" ry="10.8521" fill="#9E383A"/>
<ellipse cx="101.827" cy="108.28" rx="9.13242" ry="10.8521" fill="#9E383A"/>
<ellipse rx="2.35996" ry="4.43921" transform="matrix(0.618242 -0.785988 0.75161 0.659607 52.7408 102.211)" fill="white"/>
<ellipse rx="2.35996" ry="4.43921" transform="matrix(0.618242 -0.785988 0.75161 0.659607 107.535 102.211)" fill="white"/>
<path d="M55.4791 101.769L59.3604 105.145L60.2736 105.628L61.6435 106.351L60.9586 105.145L60.2736 103.698L59.3604 101.287L60.9586 102.251L60.5019 100.804L59.817 100.081L58.4471 99.1162L57.3056 98.3928L53.196 96.9458L49.543 96.4635L45.2051 95.9812H43.1503L41.0955 96.4635L38.3558 97.4281L34.0179 101.287L31.9631 103.939L30.5933 107.316L31.0499 107.798V107.557L34.4745 103.457L38.5841 101.046L42.6937 99.1162H45.6618L50.9129 99.5986L55.4791 101.769Z" fill="#372C2C"/>
<path d="M93.3792 101.769L89.498 105.386L88.5847 105.628L87.2148 106.351L87.6715 105.145L88.5847 103.698L89.498 101.287L87.8998 102.251L88.3564 100.804L89.0413 100.081L90.4112 99.1162L91.5527 98.3928L95.6623 96.9458L99.3153 96.4635L103.653 95.9812H105.708L108.676 96.4635L110.503 97.4281L114.84 101.287L116.895 103.939L118.265 107.316L117.808 107.798V107.557L114.384 103.457L110.274 101.046L106.165 99.1162H103.197L97.9454 99.5986L93.3792 101.769Z" fill="#372C2C"/>
<path d="M25.1142 134.566L29.2237 140.354L29.6804 139.148L32.4201 140.836L35.3881 143.248L39.0411 143.73L38.1279 141.559L37.6712 139.148L39.726 138.424V135.531L38.1279 133.36L34.7032 129.984V128.055L36.0731 126.367L34.7032 123.955L32.8767 120.338L29.6804 114.791L27.3973 107.315L26.7123 102.251L28.5388 103.215L29.6804 100.322L31.0502 96.2219L32.4201 92.8457L32.8767 88.9871H36.0731V92.1222L38.1279 96.9453L42.9224 103.215V101.527L44.5205 96.9453L45.4338 92.8457L46.5753 88.2637L49.0868 87.5402L51.8265 92.8457L53.653 97.91L55.7078 101.045L58.6758 103.939L57.7626 101.045L57.3059 98.6334V94.0515L56.8493 90.1929L57.3059 89.4695H58.6758L62.3288 96.9453L67.8082 106.592L76.484 117.685L80.3653 110.932L82.8767 105.386L84.7032 99.8392L86.5297 92.8457L87.2146 89.7106H88.8128V93.328L88.5845 99.8392L90.411 99.1158L92.0091 95.0161L94.0639 90.6752L96.1187 85.1286L96.8036 80.7878V74.5177C98.0974 76.1254 100.731 79.4373 100.913 79.8232C101.096 80.209 103.881 84.9678 105.251 87.299L109.589 97.6688L112.1 96.7042L113.47 91.3987L113.927 84.4051V76.2058L114.84 78.135C115.449 79.8232 116.712 83.2476 116.895 83.4405C117.078 83.6334 119.254 88.8264 120.32 91.3987L122.831 99.5981L122.374 104.662L120.091 113.344L115.297 120.579L113.47 125.402H115.753L119.635 122.99L116.438 125.884L113.47 131.431L113.927 134.325H116.438L111.416 138.907L112.1 139.871H113.927V143.73L117.352 141.559L120.091 139.871L122.374 137.46L122.831 139.871L124.429 138.907L126.941 135.289L130.137 131.431L134.018 126.849L137.9 120.579L141.096 114.791L142.237 110.45H142.922L144.749 110.932V104.662L145.205 103.698V102.01L146.119 101.527L147.945 104.18L149.087 103.698L150 100.804V95.0161V86.5756V80.3055L149.087 73.5531L147.945 64.3891L146.804 58.8424L145.662 54.5016L144.292 49.6785L140.639 42.4437L135.616 33.7621L128.995 24.8392L122.603 17.3633L114.612 10.1286L106.393 5.30547L98.1735 1.92926L88.3562 0H83.105L79.2237 0.482315L76.484 1.44695L73.2877 1.92926L68.7215 1.44695L65.5251 0.96463L60.274 0.482315L55.2511 0.96463L47.9452 3.13505L41.5525 6.02894L33.5616 12.0579L25.1142 19.0514L19.863 24.8392L12.1005 35.4502C10.274 39.2283 6.57534 46.8328 6.39269 47.0257C6.21005 47.2187 3.12024 55.9486 1.59817 60.2894L0.456621 68.9711C0.304414 71.865 0 77.7492 0 78.135C0 78.6174 0.456621 88.746 0.456621 89.4695C0.456621 90.1929 2.2831 97.4277 2.51142 97.91C2.73973 98.3923 3.42466 101.286 4.10959 102.251C4.65753 103.023 4.3379 104.502 4.10959 105.145L4.79452 110.45L6.16438 110.932L7.07763 109.727L7.76256 107.797H8.6758L10.5023 110.932L12.1005 115.514L16.6667 122.508L25.1142 134.566Z" fill="#71B1D6"/>
<ellipse cx="101.826" cy="107.797" rx="3.19635" ry="5.06431" fill="#31262A"/>
<ellipse cx="47.4886" cy="107.797" rx="3.19635" ry="5.06431" fill="#31262A"/>
<path d="M75.3429 138.907L73.2881 139.148H72.6031L73.0598 138.666L73.7447 138.184C74.1252 138.103 74.9319 137.942 75.1146 137.942H76.4844H77.8543H79.2242L80.1374 138.425L80.594 139.148L79.2242 138.907H77.626H76.4844H75.3429Z" fill="#966B5B"/>
</svg>
