<svg width="186" height="76" viewBox="0 0 186 76" fill="none" xmlns="http://www.w3.org/2000/svg">
<path d="M16.7811 37.7293H37.3511V45.6879H16.7811V37.7293ZM17.5157 61.2991H7.59808V18.445H39.9835V26.4036H17.5157V61.2991ZM46.0242 61.2991V15.8737H55.5746V61.2991H46.0242ZM64.4381 61.2991V28.3626H73.9884V61.2991H64.4381ZM69.2133 23.7711C67.4583 23.7711 66.0298 23.261 64.9279 22.2406C63.8259 21.2203 63.2749 19.9551 63.2749 18.445C63.2749 16.9349 63.8259 15.6697 64.9279 14.6493C66.0298 13.629 67.4583 13.1188 69.2133 13.1188C70.9682 13.1188 72.3967 13.6086 73.4987 14.5881C74.6006 15.5268 75.1516 16.7512 75.1516 18.2613C75.1516 19.853 74.6006 21.1795 73.4987 22.2406C72.4375 23.261 71.0091 23.7711 69.2133 23.7711ZM96.9938 61.7888C93.892 61.7888 91.0963 61.095 88.6067 59.7073C86.117 58.2789 84.1376 56.2994 82.6683 53.769C81.2398 51.2386 80.5256 48.2592 80.5256 44.8309C80.5256 41.3617 81.2398 38.3619 82.6683 35.8315C84.1376 33.3011 86.117 31.342 88.6067 29.9544C91.0963 28.5667 93.892 27.8729 96.9938 27.8729C99.7691 27.8729 102.198 28.4851 104.279 29.7095C106.36 30.9339 107.973 32.7909 109.115 35.2805C110.258 37.7701 110.83 40.9536 110.83 44.8309C110.83 48.6673 110.279 51.8508 109.177 54.3812C108.075 56.8708 106.483 58.7278 104.401 59.9522C102.361 61.1766 99.8916 61.7888 96.9938 61.7888ZM98.6468 53.9527C100.198 53.9527 101.606 53.5853 102.871 52.8507C104.136 52.1161 105.136 51.0753 105.871 49.7285C106.646 48.3408 107.034 46.7083 107.034 44.8309C107.034 42.9126 106.646 41.2801 105.871 39.9332C105.136 38.5864 104.136 37.5457 102.871 36.811C101.606 36.0764 100.198 35.7091 98.6468 35.7091C97.055 35.7091 95.6266 36.0764 94.3613 36.811C93.0961 37.5457 92.0758 38.5864 91.3003 39.9332C90.5657 41.2801 90.1984 42.9126 90.1984 44.8309C90.1984 46.7083 90.5657 48.3408 91.3003 49.7285C92.0758 51.0753 93.0961 52.1161 94.3613 52.8507C95.6266 53.5853 97.055 53.9527 98.6468 53.9527ZM107.279 61.2991V54.5649L107.462 44.7696L106.85 35.0356V15.8737H116.401V61.2991H107.279ZM141.586 61.7888C137.831 61.7888 134.525 61.0542 131.668 59.5849C128.852 58.1156 126.668 56.1158 125.117 53.5853C123.566 51.0141 122.791 48.0959 122.791 44.8309C122.791 41.525 123.546 38.6068 125.056 36.0764C126.607 33.5051 128.709 31.5053 131.362 30.0768C134.015 28.6075 137.014 27.8729 140.361 27.8729C143.585 27.8729 146.483 28.5667 149.054 29.9544C151.666 31.3012 153.727 33.2603 155.238 35.8315C156.748 38.3619 157.503 41.4025 157.503 44.9533C157.503 45.3206 157.482 45.7492 157.442 46.2389C157.401 46.6879 157.36 47.1164 157.319 47.5245H130.566V41.9535H152.299L148.626 43.6065C148.626 41.8923 148.279 40.4026 147.585 39.1374C146.891 37.8722 145.932 36.8926 144.708 36.1988C143.483 35.4642 142.055 35.0969 140.422 35.0969C138.79 35.0969 137.341 35.4642 136.076 36.1988C134.851 36.8926 133.892 37.8926 133.198 39.1986C132.505 40.4638 132.158 41.9739 132.158 43.7289V45.1982C132.158 46.994 132.545 48.5857 133.321 49.9733C134.137 51.3202 135.259 52.3609 136.688 53.0956C138.157 53.7894 139.871 54.1363 141.83 54.1363C143.585 54.1363 145.116 53.871 146.422 53.3405C147.769 52.8099 148.993 52.014 150.095 50.9529L155.176 56.4627C153.666 58.1768 151.768 59.5033 149.483 60.442C147.197 61.3399 144.565 61.7888 141.586 61.7888ZM163.861 61.2991V28.3626H172.983V37.6681L171.697 34.9744C172.677 32.6481 174.248 30.8931 176.411 29.7095C178.574 28.4851 181.207 27.8729 184.309 27.8729V36.6886C183.9 36.6478 183.533 36.6274 183.207 36.6274C182.88 36.5865 182.533 36.5661 182.166 36.5661C179.554 36.5661 177.431 37.3212 175.799 38.8313C174.207 40.3006 173.411 42.6065 173.411 45.7492V61.2991H163.861Z" fill="#AC87D2" fill-opacity="0.6"/>
<path d="M14.4458 35.4302H35.0157V43.3889H14.4458V35.4302ZM15.1804 59H5.26275V16.1459H37.6482V24.1045H15.1804V59ZM43.6889 59V13.5747H53.2392V59H43.6889ZM62.1028 59V26.0636H71.6531V59H62.1028ZM66.8779 21.4721C65.123 21.4721 63.6945 20.9619 62.5925 19.9416C61.4906 18.9212 60.9396 17.656 60.9396 16.1459C60.9396 14.6358 61.4906 13.3706 62.5925 12.3503C63.6945 11.3299 65.123 10.8198 66.8779 10.8198C68.6329 10.8198 70.0614 11.3095 71.1634 12.289C72.2653 13.2278 72.8163 14.4522 72.8163 15.9623C72.8163 17.554 72.2653 18.8804 71.1634 19.9416C70.1022 20.9619 68.6737 21.4721 66.8779 21.4721ZM94.6585 59.4898C91.5567 59.4898 88.7609 58.7959 86.2713 57.4083C83.7817 55.9798 81.8023 54.0004 80.333 51.4699C78.9045 48.9395 78.1903 45.9601 78.1903 42.5318C78.1903 39.0626 78.9045 36.0629 80.333 33.5324C81.8023 31.002 83.7817 29.043 86.2713 27.6553C88.7609 26.2676 91.5567 25.5738 94.6585 25.5738C97.4338 25.5738 99.8622 26.186 101.944 27.4104C104.025 28.6348 105.637 30.4918 106.78 32.9814C107.923 35.4711 108.494 38.6545 108.494 42.5318C108.494 46.3682 107.943 49.5517 106.841 52.0821C105.739 54.5717 104.148 56.4288 102.066 57.6532C100.025 58.8776 97.5562 59.4898 94.6585 59.4898ZM96.3114 51.6536C97.8623 51.6536 99.2704 51.2863 100.536 50.5516C101.801 49.817 102.801 48.7762 103.535 47.4294C104.311 46.0417 104.699 44.4092 104.699 42.5318C104.699 40.6136 104.311 38.981 103.535 37.6342C102.801 36.2873 101.801 35.2466 100.536 34.5119C99.2704 33.7773 97.8623 33.41 96.3114 33.41C94.7197 33.41 93.2912 33.7773 92.026 34.5119C90.7608 35.2466 89.7405 36.2873 88.965 37.6342C88.2304 38.981 87.8631 40.6136 87.8631 42.5318C87.8631 44.4092 88.2304 46.0417 88.965 47.4294C89.7405 48.7762 90.7608 49.817 92.026 50.5516C93.2912 51.2863 94.7197 51.6536 96.3114 51.6536ZM104.943 59V52.2658L105.127 42.4706L104.515 32.7366V13.5747H114.065V59H104.943ZM139.25 59.4898C135.495 59.4898 132.189 58.7551 129.333 57.2858C126.516 55.8166 124.333 53.8167 122.782 51.2863C121.231 48.715 120.456 45.7969 120.456 42.5318C120.456 39.2259 121.211 36.3077 122.721 33.7773C124.272 31.2061 126.374 29.2062 129.026 27.7777C131.679 26.3085 134.679 25.5738 138.026 25.5738C141.25 25.5738 144.148 26.2676 146.719 27.6553C149.331 29.0021 151.392 30.9612 152.902 33.5324C154.412 36.0629 155.167 39.1035 155.167 42.6542C155.167 43.0215 155.147 43.4501 155.106 43.9398C155.065 44.3888 155.025 44.8173 154.984 45.2255H128.231V39.6544H149.964L146.29 41.3074C146.29 39.5932 145.944 38.1035 145.25 36.8383C144.556 35.5731 143.597 34.5936 142.372 33.8997C141.148 33.1651 139.72 32.7978 138.087 32.7978C136.454 32.7978 135.006 33.1651 133.74 33.8997C132.516 34.5936 131.557 35.5935 130.863 36.8995C130.169 38.1647 129.822 39.6748 129.822 41.4298V42.8991C129.822 44.6949 130.21 46.2866 130.985 47.6743C131.802 49.0211 132.924 50.0619 134.353 50.7965C135.822 51.4903 137.536 51.8372 139.495 51.8372C141.25 51.8372 142.781 51.572 144.087 51.0414C145.433 50.5108 146.658 49.7149 147.76 48.6538L152.841 54.1636C151.331 55.8778 149.433 57.2042 147.148 58.1429C144.862 59.0408 142.23 59.4898 139.25 59.4898ZM161.526 59V26.0636H170.648V35.369L169.362 32.6753C170.341 30.349 171.913 28.594 174.076 27.4104C176.239 26.186 178.871 25.5738 181.973 25.5738V34.3895C181.565 34.3487 181.198 34.3283 180.871 34.3283C180.545 34.2875 180.198 34.2671 179.831 34.2671C177.218 34.2671 175.096 35.0221 173.464 36.5322C171.872 38.0015 171.076 40.3075 171.076 43.4501V59H161.526Z" fill="#8252B4"/>
</svg>
